<?xml version="1.0" encoding="UTF-8"?>
<svg width="1017px" height="495px" viewBox="0 0 1017 495" version="1.1" xmlns="http://www.w3.org/2000/svg" xmlns:xlink="http://www.w3.org/1999/xlink">
    <!-- Generator: Sketch 51.2 (57519) - http://www.bohemiancoding.com/sketch -->
    <title>Desktop</title>
    <desc>Created with Sketch.</desc>
    <defs></defs>
    <g id="Desktop" stroke="none" stroke-width="1" fill="none" fill-rule="evenodd">
        <g id="noun_1159873" transform="translate(41.000000, 48.000000)" fill-rule="nonzero">
            <rect id="Rectangle-path" fill="#000000" x="0" y="16" width="4.557" height="16"></rect>
            <rect id="Rectangle-path" fill="#000000" x="0" y="0" width="4.557" height="12"></rect>
            <rect id="Rectangle-path" fill="#000000" x="7" y="67" width="47" height="3.78"></rect>
            <path d="M72.7389482,42.1701185 C72.4327855,42.5826261 72.0201315,42.8459288 71.547576,42.8459288 L64,42.8459288 L64,65.1652232 L64,73.2398401 L64,200.020103 L64,307 L145,307 L145,200.020103 L145,73.2398401 L145,65.1652232 L145,42.8459288 L137.452424,42.8459288 C136.986524,42.8459288 136.567214,42.5826261 136.267707,42.1701185 C136.254396,42.1613417 136.241085,42.1613417 136.234429,42.152565 L117.318899,15.4448918 C117.165818,15.2254729 117.172473,14.9270631 117.09926,14.6637604 C117.026048,14.4180112 116.872966,14.2249225 116.872966,13.9440663 C116.872966,13.9265128 116.886278,13.917736 116.886278,13.9089592 C116.886278,13.8914057 116.872966,13.8738522 116.879622,13.8562987 C116.879622,13.8475219 116.872966,13.8475219 116.872966,13.8387452 L116.872966,4 L92.1270337,4 L92.1270337,13.8387452 L92.1270337,13.9440663 C92.1270337,14.2249225 91.9806081,14.4180112 91.9007395,14.6637604 C91.8275267,14.9270631 91.8341824,15.2166961 91.6811011,15.4448918 L72.7655711,42.152565 C72.7589154,42.1613417 72.7456039,42.1613417 72.7389482,42.1701185 Z M121.239113,212.105698 C121.239113,210.894505 121.984552,209.911508 122.90304,209.911508 L133.652013,209.911508 C134.570501,209.911508 135.315941,210.894505 135.315941,212.105698 L135.315941,272.788199 C135.315941,273.999392 134.570501,274.982389 133.652013,274.982389 L122.90304,274.982389 C121.984552,274.982389 121.239113,273.999392 121.239113,272.788199 L121.239113,212.105698 Z M89.0520953,61.1015845 C89.0520953,61.0489239 89.0920296,61.0138169 89.0986853,60.9611563 C89.0986853,60.9084958 89.058751,60.8733888 89.0654067,60.8207282 L89.5179951,56.1251629 C89.5313065,56.0022883 89.611175,55.9496278 89.6377979,55.8443067 C89.657765,55.7389856 89.6045193,55.651218 89.6377979,55.5458969 L91.0421528,51.1575182 C91.0754314,51.0609738 91.1552999,51.0434203 91.1885785,50.9644295 C91.221857,50.8854387 91.1952342,50.7801176 91.2418242,50.7011268 L93.384963,46.927121 C93.4382087,46.8305767 93.5247329,46.8393535 93.5912901,46.7691394 C93.6445357,46.6813718 93.6445357,46.567274 93.7110929,46.4970599 L96.6129827,43.5831764 C96.6795399,43.5217391 96.7527527,43.5568462 96.8259655,43.5041856 C96.8925226,43.4603018 96.905834,43.346204 96.9723911,43.3110969 L100.273624,41.4943081 C100.353492,41.4504244 100.420049,41.5206384 100.493262,41.4943081 C100.573131,41.4592011 100.613065,41.35388 100.692933,41.3363265 L104.253739,40.7044 C104.333607,40.6956232 104.393509,40.7833908 104.466721,40.7833908 C104.559901,40.7833908 104.606491,40.6956232 104.693016,40.7044 L108.300411,41.3363265 C108.380279,41.35388 108.420214,41.4592011 108.493426,41.4943081 C108.573295,41.5206384 108.639852,41.4504244 108.719721,41.4943081 L112.020953,43.3110969 C112.100822,43.3549807 112.114133,43.4778553 112.18069,43.5217391 C112.247247,43.5743997 112.327116,43.5305159 112.393673,43.6007299 L115.242317,46.5146134 C115.302219,46.5760507 115.295563,46.6989254 115.355464,46.7603627 C115.40871,46.8305767 115.495234,46.8218 115.541824,46.9095675 L117.738209,50.6835733 C117.784799,50.7625641 117.758176,50.8678852 117.79811,50.9556528 C117.838044,51.0434203 117.924569,51.0609738 117.951191,51.1575182 L119.355546,55.5458969 C119.388825,55.651218 119.335579,55.7477624 119.355546,55.8530835 C119.382169,55.9671813 119.462038,56.0198418 119.475349,56.1251629 L119.927938,60.8207282 C119.934593,60.8733888 119.894659,60.9084958 119.901315,60.9611563 C119.901315,61.0138169 119.941249,61.0489239 119.941249,61.1015845 L119.941249,69.2113084 C119.941249,70.4225009 119.195809,71.4054978 118.277321,71.4054978 L113.678225,71.4054978 C112.759737,71.4054978 112.014297,70.4225009 112.014297,69.2113084 L112.014297,63.2957738 L96.9657354,63.2957738 L96.9657354,69.2113084 C96.9657354,70.4225009 96.2202958,71.4054978 95.3018077,71.4054978 L90.7027116,71.4054978 C89.7842235,71.4054978 89.0387839,70.4225009 89.0387839,69.2113084 L89.0387839,61.1015845 L89.0520953,61.1015845 Z M89.0520953,94.8394404 C89.0520953,93.6282478 89.7975349,92.645251 90.716023,92.645251 L118.297288,92.645251 C119.215776,92.645251 119.961216,93.6282478 119.961216,94.8394404 L119.961216,155.486835 C119.961216,156.698027 119.215776,157.681024 118.297288,157.681024 L90.716023,157.681024 C89.7975349,157.681024 89.0520953,156.698027 89.0520953,155.486835 L89.0520953,94.8394404 Z M89.0520953,212.105698 C89.0520953,210.894505 89.7975349,209.911508 90.716023,209.911508 L118.297288,209.911508 C119.215776,209.911508 119.961216,210.894505 119.961216,212.105698 L119.961216,272.788199 C119.961216,273.999392 119.215776,274.982389 118.297288,274.982389 L90.716023,274.982389 C89.7975349,274.982389 89.0520953,273.999392 89.0520953,272.788199 L89.0520953,212.105698 Z M73.6907149,212.105698 C73.6907149,210.894505 74.4361545,209.911508 75.3546426,209.911508 L86.1036154,209.911508 C87.0221035,209.911508 87.7675431,210.894505 87.7675431,212.105698 L87.7675431,272.788199 C87.7675431,273.999392 87.0221035,274.982389 86.1036154,274.982389 L75.3546426,274.982389 C74.4361545,274.982389 73.6907149,273.999392 73.6907149,272.788199 L73.6907149,212.105698 Z" id="Shape" fill="#CC8D5E"></path>
            <path d="M7,33.9018325 L7,63 L55.6479605,63 L60.1210319,63 L60.1210319,40.6512715 C60.1210319,39.4384817 60.8621325,38.4541885 61.7752743,38.4541885 L70.2119105,38.4541885 L86,16 L7,16 L7,33.9018325 Z" id="Shape" fill="#CC8D5E"></path>
            <rect id="Rectangle-path" fill="#000000" x="58" y="67" width="2.982" height="3.78"></rect>
            <rect id="Rectangle-path" fill="#000000" x="148" y="323" width="69" height="1.719"></rect>
            <path d="M0,307 L61,307 L61,202 L0,202 L0,307 Z M27.3200784,211.911634 C27.3200784,210.697965 28.0643861,209.712958 28.9814795,209.712958 L56.5142172,209.712958 C57.4313106,209.712958 58.1756183,210.697965 58.1756183,211.911634 L58.1756183,272.718234 C58.1756183,273.931904 57.4313106,274.916911 56.5142172,274.916911 L28.9814795,274.916911 C28.0643861,274.916911 27.3200784,273.931904 27.3200784,272.718234 L27.3200784,211.911634 Z" id="Shape" fill="#CC8D5E"></path>
            <rect id="Rectangle-path" fill="#000000" x="148" y="317" width="69" height="1.719"></rect>
            <path d="M0,42.2510583 L0,60.5030935 L0,68.6268317 L0,198 L61,198 L61,75.3966135 L56.5075716,75.3966135 L5.99433489,75.3966135 C5.07724153,75.3966135 4.33293387,74.4119179 4.33293387,73.1986324 L4.33293387,65.1100619 L4.33293387,36 L0,36 L0,42.2510583 Z M27.3200784,94.8355585 C27.3200784,93.6222729 28.0643861,92.6375773 28.9814795,92.6375773 L56.5142172,92.6375773 C57.4313106,92.6375773 58.1756183,93.6222729 58.1756183,94.8355585 L58.1756183,155.587756 C58.1756183,156.801042 57.4313106,157.785738 56.5142172,157.785738 L28.9814795,157.785738 C28.0643861,157.785738 27.3200784,156.801042 27.3200784,155.587756 L27.3200784,94.8355585 Z" id="Shape" fill="#CC8D5E"></path>
            <path d="M148,198 L217,198 L217,93.490394 L217,48.7922501 L217,36 L212.682927,36 L212.682927,65.1100619 L212.682927,73.1986324 C212.682927,74.4119179 211.937916,75.3966135 211.019956,75.3966135 L152.496674,75.3966135 L148,75.3966135 L148,198 Z M153.880266,94.8355585 C153.880266,93.6222729 154.625277,92.6375773 155.543237,92.6375773 L183.148559,92.6375773 C184.066519,92.6375773 184.81153,93.6222729 184.81153,94.8355585 L184.81153,155.587756 C184.81153,156.801042 184.066519,157.785738 183.148559,157.785738 L155.543237,157.785738 C154.625277,157.785738 153.880266,156.801042 153.880266,155.587756 L153.880266,94.8355585 Z" id="Shape" fill="#CC8D5E"></path>
            <rect id="Rectangle-path" fill="#000000" x="148" y="67" width="2.982" height="3.78"></rect>
            <rect id="Rectangle-path" fill="#000000" x="213" y="0" width="4.543" height="12"></rect>
            <rect id="Rectangle-path" fill="#000000" x="213" y="16" width="4.543" height="16"></rect>
            <rect id="Rectangle-path" fill="#000000" x="154" y="67" width="55" height="3.78"></rect>
            <path d="M147.904606,40.6512715 L147.904606,63 L152.382109,63 L209,63 L209,33.9018325 L209,16 L122,16 L137.80373,38.4541885 L146.248725,38.4541885 C147.162771,38.4541885 147.904606,39.4384817 147.904606,40.6512715 Z" id="Shape" fill="#CC8D5E"></path>
            <path d="M93.2714795,61.061674 C93.2714795,61.0088106 93.3110074,60.9735683 93.3175954,60.9207048 C93.3175954,60.8678414 93.2780675,60.8325991 93.2846555,60.7797357 L93.5811145,57.6519824 C93.5942904,57.5374449 93.6733461,57.4757709 93.6931101,57.3788546 C93.712874,57.2819383 93.6667582,57.1938326 93.6931101,57.1057269 L94.5890749,54.1453744 C94.6220148,54.0396476 94.7142465,54.0132159 94.7471864,53.9339207 C94.7867142,53.8370044 94.7537744,53.722467 94.8064782,53.6343612 L96.2492451,51.123348 C96.3019489,51.0264317 96.3941806,51.0352423 96.4534724,50.9559471 C96.5127642,50.8854626 96.5061762,50.7709251 96.572056,50.7004405 L98.4957453,48.7709251 C98.5550371,48.7092511 98.6340928,48.753304 98.6933846,48.7004405 C98.7526764,48.6475771 98.7790283,48.5330396 98.844908,48.4977974 L101.025528,47.2907489 C101.097996,47.2555066 101.163876,47.3171806 101.236344,47.2907489 C101.308811,47.2643172 101.341751,47.1674009 101.407631,47.1497797 L103.739775,46.6828194 C103.838595,46.6651982 103.891298,46.7621145 103.98353,46.7621145 C104.075762,46.7621145 104.121878,46.6651982 104.220697,46.6828194 L106.598957,47.1497797 C106.671425,47.1674009 106.704365,47.2643172 106.770244,47.2907489 C106.8493,47.3171806 106.91518,47.246696 106.987648,47.2907489 L109.168268,48.4977974 C109.247324,48.5418502 109.2605,48.6651982 109.326379,48.7092511 C109.392259,48.753304 109.471315,48.7180617 109.537195,48.7885463 L111.414768,50.7180617 C111.47406,50.7797357 111.467472,50.8942731 111.520176,50.9559471 C111.572879,51.0176211 111.658523,51.0176211 111.704639,51.0969163 L113.193522,53.6079295 C113.246226,53.7048458 113.219874,53.8193833 113.259402,53.9251101 C113.305517,54.0220264 113.397749,54.0484581 113.424101,54.1453744 L114.320066,57.1057269 C114.353006,57.2026432 114.300302,57.2907489 114.320066,57.3876652 C114.33983,57.4933921 114.418886,57.5462555 114.432061,57.6519824 L114.72852,60.7797357 C114.735108,60.8325991 114.695581,60.8678414 114.702169,60.9207048 C114.702169,60.9735683 114.741696,61.0088106 114.741696,61.061674 L114.741696,67 L116,67 L116,61.2026432 L115.591545,56.938326 L114.359594,53.061674 L112.442492,49.7312775 L109.972001,47.1585903 L107.139171,45.5550661 L103.990118,45 L100.887181,45.5550661 L98.0279989,47.1497797 L95.5048037,49.722467 L93.6404063,53.0528634 L92.4084546,56.9295154 L92,61.1938326 L92,66.9911894 L93.2583036,66.9911894 L93.2583036,61.061674 L93.2714795,61.061674 Z" id="Shape" fill="#000000"></path>
            <path d="M0,327 L145.559855,327 L145.559855,321.051054 L145.559855,314.915649 C145.559855,313.690344 146.306042,312.695893 147.225452,312.695893 L218,312.695893 L218,311 L184.095107,311 L156.446197,311 L147.225452,311 L62.8196571,311 L0,311 L0,327 Z" id="Shape" fill="#CC8D5E"></path>
            <rect id="Rectangle-path" fill="#000000" x="404" y="67" width="55" height="3.78"></rect>
            <rect id="Rectangle-path" fill="#000000" x="397" y="0" width="4.557" height="12"></rect>
            <rect id="Rectangle-path" fill="#000000" x="397" y="16" width="4.557" height="16"></rect>
            <path d="M477.73249,42.1701185 C477.426554,42.5826261 477.014205,42.8459288 476.541999,42.8459288 L469,42.8459288 L469,65.1652232 L469,73.2398401 L469,200.020103 L469,307 L550,307 L550,200.020103 L550,73.2398401 L550,65.1652232 L550,42.8459288 L542.458001,42.8459288 C541.992446,42.8459288 541.573446,42.5826261 541.27416,42.1701185 C541.260859,42.1613417 541.247557,42.1613417 541.240906,42.152565 L522.332704,15.4448918 C522.179736,15.2254729 522.186386,14.9270631 522.113228,14.6637604 C522.033418,14.4180112 521.887101,14.2249225 521.887101,13.9440663 C521.887101,13.9265128 521.900402,13.917736 521.900402,13.9089592 C521.900402,13.8914057 521.893752,13.8738522 521.893752,13.8562987 C521.893752,13.8475219 521.887101,13.8475219 521.887101,13.8387452 L521.887101,4 L497.106248,4 L497.106248,13.8387452 L497.106248,13.9440663 C497.106248,14.2249225 496.95328,14.4180112 496.880122,14.6637604 C496.806963,14.9270631 496.813614,15.2166961 496.660645,15.4448918 L477.752443,42.152565 C477.745792,42.1613417 477.73249,42.1613417 477.73249,42.1701185 Z M526.24337,212.105698 C526.24337,210.894505 526.988258,209.911508 527.906068,209.911508 L538.607193,209.911508 C539.525002,209.911508 540.269891,210.894505 540.269891,212.105698 L540.269891,272.788199 C540.269891,273.999392 539.525002,274.982389 538.607193,274.982389 L527.906068,274.982389 C526.988258,274.982389 526.24337,273.999392 526.24337,272.788199 L526.24337,212.105698 Z M494.040233,61.1015845 C494.040233,61.0401471 494.086789,61.0138169 494.086789,60.9523796 C494.086789,60.8909423 494.046884,60.8470585 494.053535,60.7856212 L494.552344,56.0900559 C494.565646,55.9847348 494.645455,55.9320743 494.665408,55.8443067 C494.68536,55.7565391 494.638804,55.6599948 494.665408,55.581004 L496.008868,51.1926252 C496.042122,51.0873041 496.128582,51.0697506 496.168487,50.981983 C496.208391,50.8854387 496.175138,50.7713408 496.228344,50.6835733 L498.429756,46.9095675 C498.476312,46.8218 498.569423,46.8393535 498.615978,46.7603627 C498.662534,46.6813718 498.662534,46.5760507 498.729042,46.5058367 L501.588883,43.5919532 C501.662041,43.5217391 501.741851,43.5656229 501.815009,43.5041856 C501.888168,43.4515251 501.908121,43.3374272 501.974628,43.3023202 L505.319977,41.4855314 C505.393136,41.4416476 505.459644,41.5118617 505.539453,41.4855314 C505.612612,41.4592011 505.652517,41.35388 505.725675,41.3363265 L509.283849,40.7044 C509.37031,40.6956232 509.423516,40.7833908 509.503325,40.7921675 C509.589786,40.7833908 509.642992,40.6956232 509.722802,40.7044 L513.261023,41.3363265 C513.340833,41.35388 513.380737,41.4592011 513.447245,41.4855314 C513.527055,41.5118617 513.593563,41.4416476 513.666721,41.4855314 L517.025372,43.3023202 C517.105181,43.346204 517.125133,43.4690786 517.191641,43.5217391 C517.2648,43.5743997 517.34461,43.5305159 517.411117,43.6007299 L520.257657,46.5146134 C520.324165,46.5760507 520.310863,46.6989254 520.37072,46.7603627 C520.423926,46.8305767 520.510387,46.8218 520.556942,46.9095675 L522.758355,50.6835733 C522.80491,50.7713408 522.778307,50.8678852 522.818212,50.9644295 C522.858116,51.0521971 522.944577,51.0785274 522.97118,51.1662949 L524.367846,55.5546737 C524.4011,55.6599948 524.347894,55.7565391 524.367846,55.8618602 C524.387799,55.9671813 524.48091,56.0198418 524.487561,56.1163862 L524.946465,60.8119515 C524.953116,60.864612 524.913211,60.9084958 524.913211,60.9611563 C524.919862,61.0138169 524.959767,61.0489239 524.959767,61.1015845 L524.959767,69.2113084 C524.959767,70.4225009 524.214878,71.4054978 523.297069,71.4054978 L518.69472,71.4054978 C517.776911,71.4054978 517.032022,70.4225009 517.032022,69.2113084 L517.032022,63.2957738 L501.954676,63.2957738 L501.954676,69.2113084 C501.954676,70.4225009 501.209787,71.4054978 500.291978,71.4054978 L495.702931,71.4054978 C494.785122,71.4054978 494.040233,70.4225009 494.040233,69.2113084 L494.040233,61.1015845 Z M494.040233,94.8394404 C494.040233,93.6282478 494.785122,92.645251 495.702931,92.645251 L523.31037,92.645251 C524.22818,92.645251 524.973068,93.6282478 524.973068,94.8394404 L524.973068,155.486835 C524.973068,156.698027 524.22818,157.681024 523.31037,157.681024 L495.702931,157.681024 C494.785122,157.681024 494.040233,156.698027 494.040233,155.486835 L494.040233,94.8394404 Z M494.040233,212.105698 C494.040233,210.894505 494.785122,209.911508 495.702931,209.911508 L523.31037,209.911508 C524.22818,209.911508 524.973068,210.894505 524.973068,212.105698 L524.973068,272.788199 C524.973068,273.999392 524.22818,274.982389 523.31037,274.982389 L495.702931,274.982389 C494.785122,274.982389 494.040233,273.999392 494.040233,272.788199 L494.040233,212.105698 Z M478.73676,212.105698 C478.73676,210.894505 479.481649,209.911508 480.399458,209.911508 L491.100583,209.911508 C492.018392,209.911508 492.763281,210.894505 492.763281,212.105698 L492.763281,272.788199 C492.763281,273.999392 492.018392,274.982389 491.100583,274.982389 L480.399458,274.982389 C479.481649,274.982389 478.73676,273.999392 478.73676,272.788199 L478.73676,212.105698 Z" id="Shape" fill="#CC8D5E"></path>
            <path d="M465.086798,63 L465.086798,40.6512715 C465.086798,39.4384817 465.828689,38.4541885 466.742805,38.4541885 L475.188442,38.4541885 L491,16 L404,16 L404,33.9018325 L404,63 L460.66857,63 L465.086798,63 Z" id="Shape" fill="#CC8D5E"></path>
            <rect id="Rectangle-path" fill="#000000" x="463" y="67" width="2.919" height="3.78"></rect>
            <path d="M309.531708,256.585238 C309.531708,255.376777 310.276099,254.395997 311.193294,254.395997 L387.759208,254.395997 C388.676403,254.395997 389.420794,255.376777 389.420794,256.585238 L389.420794,327 L393.734273,327 L393.734273,321.132833 L393.734273,315.08177 L393.734273,309.030706 C393.734273,307.822245 394.478664,306.841465 395.39586,306.841465 L429.278935,306.841465 L429.278935,224.263278 C429.278935,223.054816 430.023326,222.074036 430.940522,222.074036 L458.52286,222.074036 C459.440056,222.074036 460.184447,223.054816 460.184447,224.263278 L460.184447,306.841465 L466,306.841465 L466,202.283294 L395.39586,202.283294 C394.478664,202.283294 393.734273,201.302513 393.734273,200.094052 L393.734273,96 L309,96 L309,327 L309.531708,327 L309.531708,256.585238 Z" id="Shape" fill="#CC8D5E"></path>
            <rect id="Rectangle-path" fill="#CC8D5E" x="309" y="51" width="85" height="40"></rect>
            <rect id="Rectangle-path" fill="#CC8D5E" x="313" y="259" width="73" height="68"></rect>
            <path d="M466,75.3966135 L461.563193,75.3966135 L402.993348,75.3966135 C402.075388,75.3966135 401.330377,74.4119179 401.330377,73.1986324 L401.330377,65.1100619 L401.330377,36 L397,36 L397,48.7922501 L397,93.490394 L397,198 L466,198 L466,75.3966135 Z M460.179601,155.587756 C460.179601,156.801042 459.43459,157.785738 458.51663,157.785738 L430.911308,157.785738 C429.993348,157.785738 429.248337,156.801042 429.248337,155.587756 L429.248337,94.8355585 C429.248337,93.6222729 429.993348,92.6375773 430.911308,92.6375773 L458.51663,92.6375773 C459.43459,92.6375773 460.179601,93.6222729 460.179601,94.8355585 L460.179601,155.587756 Z" id="Shape" fill="#CC8D5E"></path>
            <rect id="Rectangle-path" fill="#CC8D5E" x="221" y="51" width="85" height="40"></rect>
            <path d="M551.228784,38.4541885 C552.142079,38.4541885 552.883304,39.4384817 552.883304,40.6512715 L552.883304,63 L557.297562,63 L606,63 L606,33.9018325 L606,16 L527,16 L542.790735,38.4541885 L551.228784,38.4541885 Z" id="Shape" fill="#CC8D5E"></path>
            <rect id="Rectangle-path" fill="#000000" x="553" y="67" width="2.919" height="3.78"></rect>
            <rect id="Rectangle-path" fill="#000000" x="559" y="67" width="47" height="3.78"></rect>
            <rect id="Rectangle-path" fill="#CC8D5E" x="228" y="259" width="73" height="68"></rect>
            <path d="M305,327 L305,96 L220.262668,96 L220.262668,200.094052 C220.262668,201.302513 219.518308,202.283294 218.601151,202.283294 L148,202.283294 L148,306.832708 L153.875122,306.832708 L153.875122,224.254521 C153.875122,223.046059 154.619481,222.065279 155.536638,222.065279 L183.117809,222.065279 C184.034966,222.065279 184.779325,223.046059 184.779325,224.254521 L184.779325,306.832708 L218.601151,306.832708 C219.518308,306.832708 220.262668,307.813488 220.262668,309.021949 L220.262668,315.073013 L220.262668,321.132833 L220.262668,327 L224.635779,327 L224.635779,256.585238 C224.635779,255.376777 225.380138,254.395997 226.297295,254.395997 L302.866613,254.395997 C303.78377,254.395997 304.528129,255.376777 304.528129,256.585238 L304.528129,327 L305,327 Z" id="Shape" fill="#CC8D5E"></path>
            <path d="M498.275267,61.061674 C498.275267,61 498.321282,60.9647577 498.327855,60.9030837 C498.327855,60.8414097 498.288414,60.7973568 498.294988,60.7356828 L498.636812,57.6079295 C498.649959,57.5110132 498.715694,57.4581498 498.735415,57.3700441 C498.755136,57.2819383 498.709121,57.1938326 498.735415,57.1145374 L499.622843,54.154185 C499.655711,54.0484581 499.74774,54.0220264 499.780608,53.9339207 C499.826623,53.8370044 499.793755,53.722467 499.846343,53.6343612 L501.292523,51.123348 C501.345111,51.0352423 501.430567,51.0440529 501.483155,50.9735683 C501.535744,50.8942731 501.52917,50.7885463 501.594906,50.7180617 L503.468365,48.7885463 C503.5341,48.7180617 503.619556,48.7621145 503.691865,48.7092511 C503.764174,48.6475771 503.777321,48.5330396 503.84963,48.4977974 L506.071487,47.2907489 C506.137223,47.2555066 506.209532,47.3171806 506.268694,47.2907489 C506.341002,47.2643172 506.37387,47.1674009 506.439606,47.1497797 L508.766639,46.6828194 C508.858669,46.6651982 508.917831,46.7621145 509.00986,46.7621145 C509.095316,46.7621145 509.154478,46.6651982 509.246508,46.6828194 L511.612983,47.1497797 C511.685292,47.1674009 511.724733,47.2643172 511.783895,47.2907489 C511.862777,47.3171806 511.928513,47.246696 512.000822,47.2907489 L514.176664,48.4977974 C514.255546,48.5418502 514.275267,48.6651982 514.334429,48.7092511 C514.393591,48.753304 514.479047,48.7268722 514.538209,48.7885463 L516.418242,50.7180617 C516.483977,50.7797357 516.477403,50.9030837 516.529992,50.9735683 C516.595727,51.0528634 516.681183,51.0352423 516.733772,51.1321586 L518.16023,53.6431718 C518.206245,53.7312775 518.179951,53.8281938 518.212818,53.9162996 C518.25226,53.9955947 518.331142,54.0132159 518.357436,54.1013216 L519.304026,57.061674 C519.336894,57.1674009 519.284306,57.2643172 519.304026,57.3700441 C519.33032,57.4845815 519.415776,57.5374449 519.428924,57.6519824 L519.724733,60.7797357 C519.731306,60.8325991 519.691865,60.8678414 519.691865,60.9207048 C519.698439,60.9735683 519.73788,61.0088106 519.73788,61.061674 L519.73788,67 L521,67 L521,61.2202643 L520.585867,56.9207048 L519.376335,53.061674 L517.456861,49.722467 L514.991783,47.1585903 L512.079704,45.5550661 L509.003287,45 L505.907149,45.5550661 L503.021364,47.1497797 L500.516845,49.7400881 L498.610518,53.0528634 L497.453574,56.9030837 L497,61.2555066 L497,67 L498.26212,67 L498.26212,61.061674 L498.275267,61.061674 Z" id="Shape" fill="#000000"></path>
            <rect id="Rectangle-path" fill="#000000" x="397" y="323" width="69" height="1.719"></rect>
            <rect id="Rectangle-path" fill="#000000" x="397" y="317" width="69" height="1.719"></rect>
            <path d="M615,311 L552.197617,311 L467.755087,311 L458.596822,311 L430.955515,311 L397,311 L397,312.694953 L467.755087,312.694953 C468.674244,312.694953 469.420226,313.688852 469.420226,314.913478 L469.420226,321.054354 L469.420226,327 L615,327 L615,311 Z" id="Shape" fill="#CC8D5E"></path>
            <path d="M614,202 L553,202 L553,307 L614,307 L614,202 Z M586.679922,272.718234 C586.679922,273.931904 585.935614,274.916911 585.018521,274.916911 L557.439264,274.916911 C556.52217,274.916911 555.777863,273.931904 555.777863,272.718234 L555.777863,211.911634 C555.777863,210.697965 556.52217,209.712958 557.439264,209.712958 L585.018521,209.712958 C585.935614,209.712958 586.679922,210.697965 586.679922,211.911634 L586.679922,272.718234 Z" id="Shape" fill="#CC8D5E"></path>
            <path d="M553,75.3966135 L553,198 L614,198 L614,68.6268317 L614,60.5030935 L614,42.2510583 L614,36 L609.660421,36 L609.660421,65.1100619 L609.660421,73.1986324 C609.660421,74.4119179 608.916113,75.3966135 607.99902,75.3966135 L557.432618,75.3966135 L553,75.3966135 Z M586.673276,94.8355585 L586.673276,155.587756 C586.673276,156.801042 585.928968,157.785738 585.011875,157.785738 L557.432618,157.785738 C556.515525,157.785738 555.771217,156.801042 555.771217,155.587756 L555.771217,94.8355585 C555.771217,93.6222729 556.515525,92.6375773 557.432618,92.6375773 L585.011875,92.6375773 C585.928968,92.6375773 586.673276,93.6222729 586.673276,94.8355585 Z" id="Shape" fill="#CC8D5E"></path>
            <rect id="Rectangle-path" fill="#000000" x="610" y="16" width="4.564" height="16"></rect>
            <rect id="Rectangle-path" fill="#000000" x="610" y="0" width="4.564" height="12"></rect>
        </g>
        <rect id="Rectangle-5" stroke="#979797" fill="#1BBDEB" x="130.5" y="257.5" width="30" height="66"></rect>
        <rect id="Rectangle-5" stroke="#979797" fill="#1BBDEB" x="535.5" y="257.5" width="30" height="66"></rect>
        <rect id="Rectangle-4" stroke="#979797" fill="#1BBDEB" x="567.5" y="257.5" width="14" height="66"></rect>
        <rect id="Rectangle-4" stroke="#979797" fill="#1BBDEB" x="519.5" y="257.5" width="14" height="66"></rect>
        <rect id="Rectangle-4" stroke="#979797" fill="#1BBDEB" x="162.5" y="257.5" width="14" height="66"></rect>
        <rect id="Rectangle-4" stroke="#979797" fill="#1BBDEB" x="114.5" y="257.5" width="14" height="66"></rect>
        <rect id="Rectangle-3-Copy-6" stroke="#979797" fill="#1BBDEB" x="67.5" y="257.5" width="32" height="66"></rect>
        <rect id="Rectangle" stroke="#979797" fill="#52B50A" x="-6.5" y="372.5" width="1023" height="94"></rect>
        <path d="M387.983636,321.232378 L382.781164,326.237223 L376.548003,328.355024 L373.347661,337.166818 C370.338203,339.089577 368.683211,340.956623 368.382686,342.767958 C368.234037,343.663903 369.377111,345.169052 368.189113,352.0031 C367.822816,354.110249 366.190822,356.961925 366.002604,360.348575 C365.925286,361.739769 367.594185,363.552101 367.79737,366.147065 C367.917397,367.679993 367.464535,369.926178 366.438782,372.885621 C367.772104,375.193726 368.90392,376.765985 369.83423,377.602397 C370.764539,378.43881 372.69891,379.623265 375.637341,381.155763 C377.383886,381.953789 378.827598,382.464848 379.968478,382.688941 C381.109358,382.913033 383.190313,383.094291 386.211342,383.232715 C386.992577,385.606549 387.85591,386.857849 388.801342,386.986614 C389.746774,387.115379 392.195637,386.315191 396.147931,384.58605 C397.91035,385.911621 399.287665,386.574406 400.279877,386.574406 C401.272089,386.574406 402.584539,386.106849 404.217228,385.171734 L416.642689,380.659204 L423.127648,375.629426 L425.926032,368.187412 C427.687765,366.607162 428.715388,365.317842 429.008903,364.319453 C429.302418,363.321064 429.197374,361.472232 428.693772,358.772956 C430.138566,356.947541 430.903836,355.324 430.989581,353.902331 C431.075326,352.480663 430.631827,348.769205 429.659084,342.767958 C428.761934,340.713009 428.273659,339.194685 428.194261,338.212987 C428.062639,336.585576 429.707077,335.330852 429.236696,334.452722 C428.340696,332.780024 425.908006,330.747458 421.938628,328.355024 C421.155065,326.267923 420.444105,324.85358 419.805747,324.111994 C419.167389,323.370408 418.113036,322.733971 416.642689,322.202683 C414.594121,321.489141 413.05626,321.032017 412.029108,320.831311 C411.001957,320.630606 408.782249,320.353502 405.369985,320 C401.769512,320.736013 399.036333,321.170148 397.170448,321.302405 C395.915383,321.391367 394.057916,320.727179 391.720263,320.675341 C390.961796,320.658522 389.716254,320.844201 387.983636,321.232378 Z" id="Path-3" stroke="#2A5F17" stroke-width="3" fill="#2A5F17"></path>
        <path d="M338.983636,323.232378 L333.781164,328.237223 L327.548003,330.355024 L324.347661,339.166818 C321.338203,341.089577 319.683211,342.956623 319.382686,344.767958 C319.234037,345.663903 320.377111,347.169052 319.189113,354.0031 C318.822816,356.110249 317.190822,358.961925 317.002604,362.348575 C316.925286,363.739769 318.594185,365.552101 318.79737,368.147065 C318.917397,369.679993 318.464535,371.926178 317.438782,374.885621 C318.772104,377.193726 319.90392,378.765985 320.83423,379.602397 C321.764539,380.43881 323.69891,381.623265 326.637341,383.155763 C328.383886,383.953789 329.827598,384.464848 330.968478,384.688941 C332.109358,384.913033 334.190313,385.094291 337.211342,385.232715 C337.992577,387.606549 338.85591,388.857849 339.801342,388.986614 C340.746774,389.115379 343.195637,388.315191 347.147931,386.58605 C348.91035,387.911621 350.287665,388.574406 351.279877,388.574406 C352.272089,388.574406 353.584539,388.106849 355.217228,387.171734 L367.642689,382.659204 L374.127648,377.629426 L376.926032,370.187412 C378.687765,368.607162 379.715388,367.317842 380.008903,366.319453 C380.302418,365.321064 380.197374,363.472232 379.693772,360.772956 C381.138566,358.947541 381.903836,357.324 381.989581,355.902331 C382.075326,354.480663 381.631827,350.769205 380.659084,344.767958 C379.761934,342.713009 379.273659,341.194685 379.194261,340.212987 C379.062639,338.585576 380.707077,337.330852 380.236696,336.452722 C379.340696,334.780024 376.908006,332.747458 372.938628,330.355024 C372.155065,328.267923 371.444105,326.85358 370.805747,326.111994 C370.167389,325.370408 369.113036,324.733971 367.642689,324.202683 C365.594121,323.489141 364.05626,323.032017 363.029108,322.831311 C362.001957,322.630606 359.782249,322.353502 356.369985,322 C352.769512,322.736013 350.036333,323.170148 348.170448,323.302405 C346.915383,323.391367 345.057916,322.727179 342.720263,322.675341 C341.961796,322.658522 340.716254,322.844201 338.983636,323.232378 Z" id="Path-3" stroke="#2A5F17" stroke-width="3" fill="#2A5F17"></path>
        <rect id="Rectangle-2" stroke="#4A4A4A" fill="#4A4A4A" x="-3.5" y="424.5" width="1020" height="143"></rect>
        <ellipse id="Oval" stroke="#52B50A" fill="#52B50A" cx="855" cy="376" rx="112" ry="35"></ellipse>
        <rect id="Rectangle-3" stroke="#979797" fill="#1BBDEB" x="128.5" y="140.5" width="32" height="66"></rect>
        <rect id="Rectangle-3-Copy" stroke="#979797" fill="#1BBDEB" x="194.5" y="139.5" width="32" height="66"></rect>
        <rect id="Rectangle-3-Copy-3" stroke="#979797" fill="#1BBDEB" x="469.5" y="140.5" width="32" height="66"></rect>
        <rect id="Rectangle-3-Copy-4" stroke="#979797" fill="#1BBDEB" x="534.5" y="140.5" width="32" height="66"></rect>
        <rect id="Rectangle-3-Copy-5" stroke="#979797" fill="#1BBDEB" x="596.5" y="139.5" width="32" height="66"></rect>
        <rect id="Rectangle-3-Copy-6" stroke="#979797" fill="#1BBDEB" x="596.5" y="257.5" width="32" height="66"></rect>
        <rect id="Rectangle-3-Copy-2" stroke="#979797" fill="#1BBDEB" x="67.5" y="140.5" width="32" height="66"></rect>
        <rect id="Rectangle-6" stroke="#979797" fill="#8F490A" x="194.5" y="268.5" width="31" height="86"></rect>
        <rect id="Rectangle-6-Copy" stroke="#979797" fill="#8F490A" x="470.5" y="268.5" width="31" height="86"></rect>
        <path d="M546.601538,322.269165 L542.199446,327.423408 L536.925234,329.604428 L534.217251,338.679261 C531.670787,340.659415 530.270409,342.582194 530.016119,344.447598 C529.890339,345.370288 530.857555,346.920367 529.852326,353.958417 C529.542383,356.128465 528.161465,359.065266 528.002203,362.55301 C527.93678,363.985733 529.348925,365.852164 529.520851,368.524589 C529.622413,370.103277 529.239222,372.416512 528.371277,375.464296 C529.499473,377.8413 530.457163,379.460492 531.244348,380.321872 C532.031533,381.183252 533.668308,382.403064 536.154673,383.981308 C537.632519,384.803156 538.854122,385.329471 539.819481,385.560252 C540.784841,385.791034 542.545649,385.977703 545.101905,386.120259 C545.76295,388.564953 546.493463,389.853605 547.293443,389.986214 C548.093424,390.118823 550.165539,389.294749 553.509788,387.513991 C555.001066,388.879132 556.166486,389.561702 557.00605,389.561702 C557.845614,389.561702 558.956149,389.080188 560.337655,388.117159 L570.851506,383.469927 L576.338779,378.290005 L578.706643,370.625842 C580.197339,368.99842 581.066867,367.670614 581.315226,366.642422 C581.563584,365.61423 581.474701,363.710209 581.048576,360.930358 C582.271094,359.050453 582.91863,357.378447 582.991184,355.914341 C583.063738,354.450235 582.688469,350.627987 581.865379,344.447598 C581.106251,342.331308 580.693096,340.767661 580.625913,339.756658 C580.51454,338.080668 581.905988,336.78849 581.507974,335.884147 C580.74982,334.161517 578.69139,332.068278 575.332685,329.604428 C574.669671,327.455026 574.068089,325.998463 573.52794,325.23474 C572.987791,324.471017 572.095646,323.815582 570.851506,323.268435 C569.118102,322.533593 567.816836,322.062823 566.947707,321.856127 C566.078579,321.64943 564.200364,321.364055 561.313064,321 C558.266511,321.757983 555.95382,322.205078 554.374994,322.341283 C553.313016,322.4329 551.741313,321.748886 549.763299,321.6955 C549.12152,321.678179 548.067599,321.869401 546.601538,322.269165 Z" id="Path-3" stroke="#2A5F17" stroke-width="3" fill="#2A5F17"></path>
        <path d="M42.9836357,324.232378 L37.7811635,329.237223 L31.5480033,331.355024 L28.3476607,340.166818 C25.3382027,342.089577 23.6832112,343.956623 23.382686,345.767958 C23.2340365,346.663903 24.377111,348.169052 23.1891128,355.0031 C22.8228161,357.110249 21.1908221,359.961925 21.0026035,363.348575 C20.9252857,364.739769 22.5941846,366.552101 22.7973696,369.147065 C22.9173975,370.679993 22.4645349,372.926178 21.4387817,375.885621 C22.7721044,378.193726 23.9039205,379.765985 24.8342299,380.602397 C25.7645393,381.43881 27.6989096,382.623265 30.6373409,384.155763 C32.3838858,384.953789 33.8275982,385.464848 34.9684781,385.688941 C36.109358,385.913033 38.1903128,386.094291 41.2113425,386.232715 C41.9925771,388.606549 42.8559103,389.857849 43.8013421,389.986614 C44.746774,390.115379 47.1956371,389.315191 51.1479315,387.58605 C52.9103502,388.911621 54.2876655,389.574406 55.2798773,389.574406 C56.272089,389.574406 57.5845394,389.106849 59.2172283,388.171734 L71.6426889,383.659204 L78.1276476,378.629426 L80.9260321,371.187412 C82.6877646,369.607162 83.7153882,368.317842 84.0089029,367.319453 C84.3024176,366.321064 84.1973739,364.472232 83.6937718,361.772956 C85.1385659,359.947541 85.9038356,358.324 85.989581,356.902331 C86.0753263,355.480663 85.6318274,351.769205 84.6590842,345.767958 C83.7619335,343.713009 83.2736591,342.194685 83.1942609,341.212987 C83.0626386,339.585576 84.7070769,338.330852 84.2366962,337.452722 C83.3406959,335.780024 80.9080065,333.747458 76.9386278,331.355024 C76.1550652,329.267923 75.444105,327.85358 74.8057471,327.111994 C74.1673892,326.370408 73.1130365,325.733971 71.6426889,325.202683 C69.5941206,324.489141 68.0562604,324.032017 67.0291085,323.831311 C66.0019565,323.630606 63.7822487,323.353502 60.369985,323 C56.7695124,323.736013 54.0363333,324.170148 52.1704476,324.302405 C50.9153829,324.391367 49.0579156,323.727179 46.720263,323.675341 C45.9617964,323.658522 44.7162539,323.844201 42.9836357,324.232378 Z" id="Path-3" stroke="#2A5F17" stroke-width="3" fill="#2A5F17"></path>
        <path d="M132.983636,320.232378 L127.781164,325.237223 L121.548003,327.355024 L118.347661,336.166818 C115.338203,338.089577 113.683211,339.956623 113.382686,341.767958 C113.234037,342.663903 114.377111,344.169052 113.189113,351.0031 C112.822816,353.110249 111.190822,355.961925 111.002604,359.348575 C110.925286,360.739769 112.594185,362.552101 112.79737,365.147065 C112.917397,366.679993 112.464535,368.926178 111.438782,371.885621 C112.772104,374.193726 113.90392,375.765985 114.83423,376.602397 C115.764539,377.43881 117.69891,378.623265 120.637341,380.155763 C122.383886,380.953789 123.827598,381.464848 124.968478,381.688941 C126.109358,381.913033 128.190313,382.094291 131.211342,382.232715 C131.992577,384.606549 132.85591,385.857849 133.801342,385.986614 C134.746774,386.115379 137.195637,385.315191 141.147931,383.58605 C142.91035,384.911621 144.287665,385.574406 145.279877,385.574406 C146.272089,385.574406 147.584539,385.106849 149.217228,384.171734 L161.642689,379.659204 L168.127648,374.629426 L170.926032,367.187412 C172.687765,365.607162 173.715388,364.317842 174.008903,363.319453 C174.302418,362.321064 174.197374,360.472232 173.693772,357.772956 C175.138566,355.947541 175.903836,354.324 175.989581,352.902331 C176.075326,351.480663 175.631827,347.769205 174.659084,341.767958 C173.761934,339.713009 173.273659,338.194685 173.194261,337.212987 C173.062639,335.585576 174.707077,334.330852 174.236696,333.452722 C173.340696,331.780024 170.908006,329.747458 166.938628,327.355024 C166.155065,325.267923 165.444105,323.85358 164.805747,323.111994 C164.167389,322.370408 163.113036,321.733971 161.642689,321.202683 C159.594121,320.489141 158.05626,320.032017 157.029108,319.831311 C156.001957,319.630606 153.782249,319.353502 150.369985,319 C146.769512,319.736013 144.036333,320.170148 142.170448,320.302405 C140.915383,320.391367 139.057916,319.727179 136.720263,319.675341 C135.961796,319.658522 134.716254,319.844201 132.983636,320.232378 Z" id="Path-3" stroke="#2A5F17" stroke-width="3" fill="#2A5F17"></path>
        <path d="M283.983636,321.232378 L278.781164,326.237223 L272.548003,328.355024 L269.347661,337.166818 C266.338203,339.089577 264.683211,340.956623 264.382686,342.767958 C264.234037,343.663903 265.377111,345.169052 264.189113,352.0031 C263.822816,354.110249 262.190822,356.961925 262.002604,360.348575 C261.925286,361.739769 263.594185,363.552101 263.79737,366.147065 C263.917397,367.679993 263.464535,369.926178 262.438782,372.885621 C263.772104,375.193726 264.90392,376.765985 265.83423,377.602397 C266.764539,378.43881 268.69891,379.623265 271.637341,381.155763 C273.383886,381.953789 274.827598,382.464848 275.968478,382.688941 C277.109358,382.913033 279.190313,383.094291 282.211342,383.232715 C282.992577,385.606549 283.85591,386.857849 284.801342,386.986614 C285.746774,387.115379 288.195637,386.315191 292.147931,384.58605 C293.91035,385.911621 295.287665,386.574406 296.279877,386.574406 C297.272089,386.574406 298.584539,386.106849 300.217228,385.171734 L312.642689,380.659204 L319.127648,375.629426 L321.926032,368.187412 C323.687765,366.607162 324.715388,365.317842 325.008903,364.319453 C325.302418,363.321064 325.197374,361.472232 324.693772,358.772956 C326.138566,356.947541 326.903836,355.324 326.989581,353.902331 C327.075326,352.480663 326.631827,348.769205 325.659084,342.767958 C324.761934,340.713009 324.273659,339.194685 324.194261,338.212987 C324.062639,336.585576 325.707077,335.330852 325.236696,334.452722 C324.340696,332.780024 321.908006,330.747458 317.938628,328.355024 C317.155065,326.267923 316.444105,324.85358 315.805747,324.111994 C315.167389,323.370408 314.113036,322.733971 312.642689,322.202683 C310.594121,321.489141 309.05626,321.032017 308.029108,320.831311 C307.001957,320.630606 304.782249,320.353502 301.369985,320 C297.769512,320.736013 295.036333,321.170148 293.170448,321.302405 C291.915383,321.391367 290.057916,320.727179 287.720263,320.675341 C286.961796,320.658522 285.716254,320.844201 283.983636,321.232378 Z" id="Path-3" stroke="#2A5F17" stroke-width="3" fill="#2A5F17"></path>
        <path d="M831,231.234387 C840.804652,253.369747 846.079574,270.144514 846.824767,281.558689 C847.569961,292.972863 844.812251,314.75442 838.55164,346.903358 C841.016831,348.46162 843.23579,349.491489 845.208517,349.992966 C847.181244,350.494443 850.334124,350.830121 854.667156,351 L867.632403,351 C859.682891,327.544638 857.763165,309.749462 861.873226,297.614472 C865.983286,285.479481 878.976923,270.578835 900.854136,252.912533 C902.284712,250.446979 903,248.699431 903,247.669888 C903,246.640345 902.284712,245.150182 900.854136,243.199401 C898.958406,241.230261 897.639757,240.064033 896.898189,239.700716 C896.156621,239.337399 894.761287,239.173963 892.712188,239.21041 C883.717522,246.011175 877.563827,251.401596 874.251101,255.381675 C870.938376,259.361753 866.149014,267.118884 859.883015,278.653067 C856.921253,270.685739 854.754831,263.780363 853.383749,257.936938 C852.012668,252.093513 851.242885,247.531359 851.0744,244.250474 L846.824767,223 C842.644814,223.634233 839.627682,224.433792 837.773372,225.398679 C835.919063,226.363565 833.661272,228.308801 831,231.234387 Z" id="Path-2" stroke="#979797" fill="#645426"></path>
        <path d="M804.938013,127.262425 L795.013297,136.450423 L783.122345,140.338328 L777.017076,156.515204 C771.275956,160.045043 768.118741,163.472606 767.545432,166.797893 C767.261854,168.442687 769.442489,171.205872 767.176154,183.75196 C766.477372,187.620308 763.36403,192.855473 763.004967,199.072757 C762.857468,201.626741 766.041214,204.953857 766.428828,209.717746 C766.657804,212.531928 765.793882,216.655522 763.837061,222.088527 C766.38063,226.325795 768.539787,229.212181 770.314531,230.747685 C772.089275,232.283189 775.779458,234.457636 781.385081,237.271027 C784.716951,238.736061 787.47111,239.674274 789.647558,240.085667 C791.824006,240.497061 795.793827,240.829818 801.557023,241.083939 C803.047378,245.441873 804.694352,247.739035 806.497945,247.975425 C808.301538,248.211815 812.973215,246.742813 820.512977,243.568419 C823.87513,246.00193 826.502623,247.218686 828.395458,247.218686 C830.288293,247.218686 832.792044,246.360334 835.906712,244.643631 L859.610668,236.359434 L871.981974,227.125662 L877.320431,213.463457 C880.681274,210.562401 882.641664,208.195442 883.201599,206.362578 C883.761535,204.529714 883.561144,201.135589 882.600426,196.180203 C885.356649,192.829068 886.816548,189.848537 886.980124,187.238608 C887.143699,184.628679 886.29764,177.815107 884.441945,166.797893 C882.730458,163.025374 881.79898,160.238004 881.647513,158.435782 C881.396418,155.448147 884.533501,153.144699 883.636159,151.532609 C881.926866,148.461835 877.286043,144.730408 869.71369,140.338328 C868.218894,136.506785 866.8626,133.910304 865.64481,132.548884 C864.427019,131.187465 862.415639,130.019081 859.610668,129.043732 C855.70263,127.733795 852.768866,126.894598 850.809376,126.526139 C848.849886,126.15768 844.615367,125.648967 838.105818,125 C831.237224,126.351188 826.023159,127.148182 822.463623,127.390983 C820.069346,127.5543 816.52587,126.334971 812.066348,126.239805 C810.619427,126.208928 808.243315,126.549801 804.938013,127.262425 Z" id="Path-3" stroke="#2A5F17" stroke-width="3" fill="#52B50A"></path>
        <path d="M874.77641,142.501371 L880.836238,141 L897.148968,148.468859 L906.245092,147.16137 C910.213967,150.577182 913.235862,152.78361 915.310775,153.780654 C917.385689,154.777697 921.002666,155.761399 926.161706,156.731759 C928.958736,157.854937 930.775736,159.010763 931.612704,160.199235 C932.449671,161.387706 933.518071,164.329069 934.817902,169.023322 C937.397699,171.418444 939.096205,173.213399 939.91342,174.408188 C940.730636,175.602977 942.340109,178.644365 944.741839,183.532355 C946.64008,188.432518 947.714698,191.908762 947.965695,193.961087 C948.216692,196.013413 947.090355,198.761542 944.586686,202.205476 C946.670624,205.39011 947.57536,208.413312 947.300891,211.275083 C947.026423,214.136854 946.173406,218.060619 944.741839,223.046379 C947.048376,227.374466 947.69845,230.540563 946.692061,232.54467 C945.685672,234.548778 941.727619,237.970137 934.817902,242.808749 C935.046207,246.654133 934.541794,249.09926 933.304663,250.144131 C932.067532,251.189002 928.544498,252.145424 922.735562,253.013397 C916.242822,255.847993 911.393127,257.46985 908.186476,257.878969 C904.979826,258.288089 902.040418,257.66 899.368253,255.994705 C901.118888,252.245875 902.043591,249.672467 902.14236,248.274481 C902.387958,244.798293 900.357419,242.630942 899.43601,241.781854 C897.058908,239.591328 892.062832,240.175621 888.202105,240.575691 C885.158216,240.891115 883.036692,241.018523 881.971412,240.086601 C878.29548,236.870841 877.917089,236.769516 880.836238,239.782624 C878.282425,238.124876 876.477865,236.695927 875.422556,235.495776 C874.367248,234.295624 873.559729,232.753983 873,230.870851 C873.000379,227.848516 873.212161,225.472563 873.635344,223.742991 C874.336843,220.875933 876.300393,216.234471 877.011408,214.90429 C878.365809,212.370448 880.717662,209.978906 884.066968,207.729665 C885.059364,205.902953 885.487836,204.595789 885.352386,203.808173 C884.847318,200.871313 882.653405,198.66094 882.949469,197.081718 C883.364633,194.867215 885.145626,192.724765 888.292448,190.654369 C888.301182,184.52481 888.16665,179.848898 887.888852,176.626632 C887.611055,173.404366 887.042158,169.920977 886.182163,166.176465 C883.646783,163.712272 882.341725,161.879644 882.26699,160.678582 C881.990296,156.23187 885.138978,152.542388 884.257473,150.712634 C883.018824,148.141553 879.85847,145.404465 874.77641,142.501371 Z" id="Path-4" stroke="#2A5F17" stroke-width="3" fill="#52B50A"></path>
        <path d="M637.983636,322.232378 L632.781164,327.237223 L626.548003,329.355024 L623.347661,338.166818 C620.338203,340.089577 618.683211,341.956623 618.382686,343.767958 C618.234037,344.663903 619.377111,346.169052 618.189113,353.0031 C617.822816,355.110249 616.190822,357.961925 616.002604,361.348575 C615.925286,362.739769 617.594185,364.552101 617.79737,367.147065 C617.917397,368.679993 617.464535,370.926178 616.438782,373.885621 C617.772104,376.193726 618.90392,377.765985 619.83423,378.602397 C620.764539,379.43881 622.69891,380.623265 625.637341,382.155763 C627.383886,382.953789 628.827598,383.464848 629.968478,383.688941 C631.109358,383.913033 633.190313,384.094291 636.211342,384.232715 C636.992577,386.606549 637.85591,387.857849 638.801342,387.986614 C639.746774,388.115379 642.195637,387.315191 646.147931,385.58605 C647.91035,386.911621 649.287665,387.574406 650.279877,387.574406 C651.272089,387.574406 652.584539,387.106849 654.217228,386.171734 L666.642689,381.659204 L673.127648,376.629426 L675.926032,369.187412 C677.687765,367.607162 678.715388,366.317842 679.008903,365.319453 C679.302418,364.321064 679.197374,362.472232 678.693772,359.772956 C680.138566,357.947541 680.903836,356.324 680.989581,354.902331 C681.075326,353.480663 680.631827,349.769205 679.659084,343.767958 C678.761934,341.713009 678.273659,340.194685 678.194261,339.212987 C678.062639,337.585576 679.707077,336.330852 679.236696,335.452722 C678.340696,333.780024 675.908006,331.747458 671.938628,329.355024 C671.155065,327.267923 670.444105,325.85358 669.805747,325.111994 C669.167389,324.370408 668.113036,323.733971 666.642689,323.202683 C664.594121,322.489141 663.05626,322.032017 662.029108,321.831311 C661.001957,321.630606 658.782249,321.353502 655.369985,321 C651.769512,321.736013 649.036333,322.170148 647.170448,322.302405 C645.915383,322.391367 644.057916,321.727179 641.720263,321.675341 C640.961796,321.658522 639.716254,321.844201 637.983636,322.232378 Z" id="Path-3" stroke="#2A5F17" stroke-width="3" fill="#2A5F17"></path>
        <path d="" id="Path-5" stroke="#979797" fill-rule="nonzero"></path>
    </g>
</svg>